PathFileType	4	(X/Y/Z)	Walk4.trc
DataRate	CameraRate	NumFrames	NumMarkers	Units	OrigDataRate	OrigDataStartFrame	OrigNumFrames
200.000000	200.000000	4	59	mm	200.000000	235	506
Frame#	Times		LBHD		RBHD		C7		T10		RBack		LPSI		RPSI		RElbowM		RCAR		RFA1		LUA1		RTB1		RTH3		RTB4		LACR1		LCAR		RTH2		LWRU		RTB3		LWRR		RMT1		RWRU		RToe		LElbowM		RCAL		CLAV		RUA1		RTH4		RTH1		RWRR		RMT5		LFA1		LLFC		RACR1		RTB2		LTH1		LTH4		LFHD		RElbow		RLFC		RFHD		LElbow		RMMAL		STRN		LTH3		RLMAL		RASI		LTB2		LTH2		LTB3		LCAL		LASI		LMT5		LMT1		LTB1		LToe		LTB4		LLMAL		LMMAL
			X1	Y1	Z1	X2	Y2	Z2	X3	Y3	Z3	X4	Y4	Z4	X5	Y5	Z5	X6	Y6	Z6	X7	Y7	Z7	X8	Y8	Z8	X9	Y9	Z9	X10	Y10	Z10	X11	Y11	Z11	X12	Y12	Z12	X13	Y13	Z13	X14	Y14	Z14	X15	Y15	Z15	X16	Y16	Z16	X17	Y17	Z17	X18	Y18	Z18	X19	Y19	Z19	X20	Y20	Z20	X21	Y21	Z21	X22	Y22	Z22	X23	Y23	Z23	X24	Y24	Z24	X25	Y25	Z25	X26	Y26	Z26	X27	Y27	Z27	X28	Y28	Z28	X29	Y29	Z29	X30	Y30	Z30	X31	Y31	Z31	X32	Y32	Z32	X33	Y33	Z33	X34	Y34	Z34	X35	Y35	Z35	X36	Y36	Z36	X37	Y37	Z37	X38	Y38	Z38	X39	Y39	Z39	X40	Y40	Z40	X41	Y41	Z41	X42	Y42	Z42	X43	Y43	Z43	X44	Y44	Z44	X45	Y45	Z45	X46	Y46	Z46	X47	Y47	Z47	X48	Y48	Z48	X49	Y49	Z49	X50	Y50	Z50	X51	Y51	Z51	X52	Y52	Z52	X53	Y53	Z53	X54	Y54	Z54	X55	Y55	Z55	X56	Y56	Z56	X57	Y57	Z57	X58	Y58	Z58	X59	Y59	Z59

235	1.175	-610.92	1501.4	-142.89	-614.78	1509.9	-19.712	-648.19	1364.7	-73.523	-664.06	1090.6	-77.333	-671.74	1260.9	58.341	-673.48	901.95	-118.1	-689.62	906.54	-19.743	-597.1	966.69	128.51	-431	763.95	218.91	-526.88	883.21	209.48	-551.27	1127.9	-312.33	-570.16	336.48	51.73	-549.85	557.03	133.25	-645.35	283.22	36.443	-560.53	1302.4	-234	-493.13	735.06	-387.12	-480.52	660.79	126.15	-542.04	770.26	-366.26	-713.84	222.35	21.683	-474.72	769.62	-336.89	-764.12	99.446	-9.7151	-484.49	779.5	191.14	-758.08	50.424	5.7656	-614.69	980.9	-254.79	-854.73	227.2	-1.9753	-521.98	1288.7	-63.513	-547.41	1153	163.36	-555.78	652.2	144.6	-559.42	740.61	159.93	-417.7	807.04	172.92	-802.74	103.9	34.512	-568.44	888.98	-352.45	-476.33	457.45	-177.28	-576.58	1306.4	82.835	-683.2	313.71	93.296	-485.84	750.17	-238.63	-470.51	660.96	-211.75	-439.51	1491.2	-116.74	-551.54	1008.8	201.79	-536.18	458.87	130.2	-435.47	1500.5	-40.425	-589.99	1009.2	-323.95	-780.69	194.47	-31.054	-453.19	1189	-64.787	-461.16	569.68	-186.8	-813.01	196.82	41.175	-434.33	898.46	97.866	-471.9	253.93	-155.29	-413.64	683.09	-170.6	-449.05	166.46	-78.262	-536.71	33.83	-87.603	-548.85	858.76	-202.91	-401.08	34.397	-118.94	-384.36	50.116	-61.035	-444.67	348.83	-91.898	-327.21	24.568	-60.662	-454.43	257.3	-86.797	-489.08	65.77	-123.8	-478.75	72.191	-44.606
236	1.18	-605.29	1501.9	-143	-609.15	1510.4	-19.833	-642.63	1365.2	-73.688	-658.56	1091.1	-77.681	-666.45	1261.2	57.965	-668.13	902.39	-118.16	-684.16	906.83	-19.868	-594.05	967.04	128.45	-430.16	763.06	220.29	-524.84	883.12	209.88	-545.15	1128.3	-312.47	-559.05	337.53	52.744	-540.83	557.89	133.83	-634.06	284.16	37.447	-554.82	1302.8	-234.15	-485.86	735.57	-386.51	-472.51	662.3	126.76	-534.96	770.56	-365.84	-702.44	223.06	22.817	-467.71	770.29	-336.3	-751.03	100.38	-6.1967	-483.28	779.01	192.08	-744.44	51.311	10.492	-608.97	981.15	-255.33	-843.72	226.89	-1.4327	-516.48	1289.1	-63.559	-543.16	1153	163.49	-547.7	653.04	145.07	-552.17	741.49	160.16	-416.1	805.97	174.37	-790.01	105.6	37.847	-561.84	889.21	-352.4	-474.73	457.43	-177.25	-571.35	1306.6	82.845	-672.09	314.73	94.221	-481.29	750.16	-238.72	-466.94	660.86	-211.62	-433.89	1491.6	-116.82	-548.38	1008.8	201.96	-525.71	460.04	131.09	-429.84	1500.9	-40.527	-583.82	1009.5	-324.26	-769.02	194.77	-29.988	-447.77	1189.3	-64.713	-458.49	569.5	-186.63	-801.57	197.57	42.188	-430.55	898.36	97.274	-471.2	253.86	-155.22	-410.06	682.52	-170.26	-448.64	166.32	-78.175	-536.69	33.865	-87.504	-546.68	858.7	-202.8	-401.04	34.439	-118.81	-384.33	50.029	-60.859	-443.67	348.69	-91.88	-327.1	24.451	-60.485	-453.68	257.19	-86.751	-488.96	65.771	-123.64	-478.71	72.153	-44.432
237	1.185	-599.68	1502.4	-143.08	-603.53	1510.9	-19.929	-637.05	1365.6	-73.823	-653.09	1091.6	-78.002	-661.15	1261.5	57.61	-662.82	902.83	-118.21	-678.73	907.13	-19.966	-591.02	967.33	128.41	-429.37	762.17	221.74	-522.83	883.01	210.3	-539.08	1128.6	-312.6	-547.94	338.54	53.62	-531.9	558.76	134.3	-622.68	284.97	38.407	-549.13	1303.2	-234.28	-478.52	736.08	-385.91	-464.57	663.79	127.33	-527.84	770.84	-365.44	-690.83	223.48	23.908	-460.68	770.95	-335.71	-737.47	101.1	-2.6414	-482.1	778.49	193.06	-730.15	52.044	15.233	-603.29	981.32	-255.91	-832.51	226.04	-0.82513	-510.98	1289.5	-63.588	-538.94	1152.9	163.64	-539.69	653.87	145.5	-544.98	742.34	160.41	-414.54	804.88	175.9	-776.79	106.94	41.188	-555.23	889.39	-352.38	-473.12	457.44	-177.25	-566.1	1306.8	82.894	-660.87	315.5	95.124	-476.72	750.14	-238.82	-463.36	660.77	-211.49	-428.27	1492	-116.87	-545.23	1008.8	202.14	-515.28	461.26	131.9	-424.22	1501.2	-40.597	-577.67	1009.8	-324.58	-757.12	194.68	-28.896	-442.36	1189.5	-64.607	-455.82	569.36	-186.49	-789.84	197.88	43.243	-426.8	898.27	96.71	-470.5	253.8	-155.18	-406.53	681.97	-169.86	-448.22	166.18	-78.104	-536.67	33.897	-87.412	-544.23	858.63	-202.69	-401.01	34.479	-118.7	-384.31	49.95	-60.701	-442.65	348.55	-91.89	-327	24.369	-60.347	-452.9	257.09	-86.735	-488.86	65.775	-123.49	-478.66	72.127	-44.268
238	1.19	-594.07	1502.8	-143.13	-597.92	1511.4	-20	-631.47	1366	-73.929	-647.64	1092	-78.292	-655.85	1261.8	57.277	-657.55	903.26	-118.24	-673.36	907.44	-20.034	-587.99	967.58	128.37	-428.63	761.27	223.25	-520.86	882.88	210.74	-533.07	1128.8	-312.72	-536.83	339.52	54.36	-523.06	559.62	134.67	-611.23	285.64	39.326	-543.46	1303.5	-234.39	-471.14	736.59	-385.34	-456.71	665.26	127.86	-520.69	771.09	-365.08	-679.02	223.63	24.961	-453.62	771.59	-335.13	-723.46	101.6	0.9284	-480.96	777.95	194.07	-715.28	52.628	19.963	-597.66	981.41	-256.52	-821.09	224.66	-0.14292	-505.48	1289.8	-63.597	-534.77	1152.8	163.8	-531.75	654.68	145.88	-537.83	743.15	160.67	-413.02	803.76	177.48	-763.1	107.93	44.501	-548.6	889.55	-352.37	-471.49	457.46	-177.27	-560.84	1306.9	82.975	-649.52	316.01	96.011	-472.13	750.12	-238.93	-459.76	660.68	-211.38	-422.66	1492.3	-116.89	-542.1	1008.8	202.33	-504.88	462.49	132.62	-418.6	1501.6	-40.635	-571.53	1010	-324.92	-744.99	194.19	-27.77	-436.95	1189.8	-64.472	-453.13	569.23	-186.37	-777.82	197.76	44.345	-423.1	898.2	96.175	-469.79	253.75	-155.15	-403.03	681.44	-169.41	-447.8	166.05	-78.039	-536.66	33.928	-87.326	-541.5	858.57	-202.56	-400.99	34.516	-118.6	-384.3	49.879	-60.556	-441.6	348.4	-91.917	-326.93	24.317	-60.243	-452.11	257.01	-86.741	-488.75	65.781	-123.35	-478.61	72.109	-44.11
